Coordinates
nRows=6
nColumns=38

# SIMM Motion File Header:
name Coordinates
datacolumns 38
datarows 6
otherdata 1
range 0.83899999999999997000 0.84399999999999997000

Units are S.I. units (second, meters, Newtons, ...)
Angles are in degrees.

endheader
time	pelvis_tilt	pelvis_list	pelvis_rotation	pelvis_tx	pelvis_ty	pelvis_tz	hip_flexion_r	hip_adduction_r	hip_rotation_r	knee_angle_r	ankle_angle_r	subtalar_angle_r	mtp_angle_r	hip_flexion_l	hip_adduction_l	hip_rotation_l	knee_angle_l	ankle_angle_l	subtalar_angle_l	mtp_angle_l	lumbar_extension	lumbar_bending	lumbar_rotation	arm_flex_r	arm_add_r	arm_rot_r	elbow_flex_r	pro_sup_r	wrist_flex_r	wrist_dev_r	arm_flex_l	arm_add_l	arm_rot_l	elbow_flex_l	pro_sup_l	wrist_flex_l	wrist_dev_l
      0.83899999999999997000	     -5.10734696381051110000	     -0.85841117257743482000	      4.04650005758064070000	      0.73474002485492396000	      0.94252766856123227000	     -0.31929603115931304000	     44.24655863169148500000	     -1.65438640621633890000	    -12.62928802660303200000	   -124.50679772432578000000	     -6.02086091873677190000	      0.00000000000029901523	      0.00000000000011407797	      7.06657596913768420000	     -0.12815515380473380000	     -4.26292886763025350000	    -36.99997186075375300000	     17.35942571860398700000	      0.00000000000001946652	     -0.00000000000007371543	     -5.74306526464816700000	     -0.92283394866402901000	    -14.94085465320059600000	    -17.59255689360735900000	    -19.62625482313311000000	     14.63463729428909400000	     48.19177963702979600000	     71.52735009664475300000	      0.00000000000002858903	      0.00000000000006967881	     -3.62316741542417150000	    -40.99664590177685900000	     16.49905415823430100000	    105.44172147618990000000	     82.61998300572396700000	      0.00000000000006677275	     -0.00000000000000805164
      0.83999999999999997000	     -5.02849743037529340000	     -0.96026557124817391000	      3.98939814437054710000	      0.73488739471798836000	      0.94299247053846047000	     -0.31921636335615750000	     44.47933980613917300000	     -1.49637528657037630000	    -12.57928415868159200000	   -124.11666741400315000000	     -5.92531745275605190000	      0.00000000000029972394	      0.00000000000011442995	      6.51274418364141020000	     -0.27681202692867368000	     -4.31072347660589910000	    -36.66867946334003400000	     17.02429392693838000000	      0.00000000000001909357	     -0.00000000000007403186	     -5.81143317146807800000	     -0.77550911411822687000	    -15.05556408081497100000	    -17.72086522492376700000	    -19.71502509844638200000	     14.70000450484355300000	     48.25944218843788700000	     71.38901673611768200000	      0.00000000000002867731	      0.00000000000007004432	     -3.51403102679909280000	    -40.89388834728357100000	     16.25942241302358900000	    105.70554615780438000000	     82.64501396886184600000	      0.00000000000006698929	     -0.00000000000000805457
      0.84099999999999997000	     -4.95100474935621280000	     -1.06330263882738430000	      3.93179766468595470000	      0.73504693302554602000	      0.94346544929077103000	     -0.31913685339486741000	     44.70635989166148500000	     -1.33774232862739950000	    -12.53066997845889800000	   -123.71701352659341000000	     -5.83045671065425350000	      0.00000000000030043083	      0.00000000000011478099	      5.95882028245031850000	     -0.42563007544989129000	     -4.36185189508422780000	    -36.33283180861176500000	     16.67289949236022300000	      0.00000000000001871072	     -0.00000000000007432367	     -5.87660542359506530000	     -0.62675748076379167000	    -15.16849148419242400000	    -17.85146445141591100000	    -19.80551870383997900000	     14.76391450071705900000	     48.33095773058595800000	     71.25531471531863300000	      0.00000000000002876428	      0.00000000000007040911	     -3.40738274627982700000	    -40.79008406312702600000	     16.02138029308537200000	    105.97092061662160000000	     82.66399436714806400000	      0.00000000000006720515	     -0.00000000000000805901
      0.84199999999999997000	     -4.87506274332488410000	     -1.16756103441331250000	      3.87363517750160560000	      0.73521844410235937000	      0.94394592512149511000	     -0.31905724799452301000	     44.92782914827245100000	     -1.17843613952823190000	    -12.48344939753448600000	   -123.30797996904472000000	     -5.73629706077993080000	      0.00000000000030113697	      0.00000000000011512975	      5.40518625709099430000	     -0.57465042618641249000	     -4.41644422329004090000	    -35.99268246568732400000	     16.30512674711967600000	      0.00000000000001828788	     -0.00000000000007463552	     -5.93838171304858880000	     -0.47658354199183778000	    -15.27950927615929400000	    -17.98440061660047100000	    -19.89765450634406800000	     14.82619554703090100000	     48.40615979249443500000	     71.12660802145032300000	      0.00000000000002885440	      0.00000000000007077123	     -3.30312330524249290000	    -40.68527137875489100000	     15.78516251962685700000	    106.23780864922477000000	     82.67689091309654300000	      0.00000000000006741930	     -0.00000000000000807639
      0.84299999999999997000	     -4.80085589757356420000	     -1.27307719614051540000	      3.81484949054086810000	      0.73540171122156350000	      0.94443323113090905000	     -0.31897729721025181000	     45.14395350545642300000	     -1.01840811114017060000	    -12.43762631722154300000	   -122.88970927229784000000	     -5.64286324504842350000	      0.00000000000030183816	      0.00000000000011547895	      4.85221515865475260000	     -0.72391330552472000000	     -4.47462652496460760000	    -35.64848481229086000000	     15.92087831422210800000	      0.00000000000001787284	     -0.00000000000007496999	     -5.99657803266603300000	     -0.32499188833088971000	    -15.38849541001043200000	    -18.11971306840955300000	    -19.99135059149878700000	     14.88667620946870700000	     48.48488553629373900000	     71.00323294836773900000	      0.00000000000002894532	      0.00000000000007113324	     -3.20115261038570060000	    -40.57949030453998800000	     15.55099889246955200000	    106.50617481745135000000	     82.68367615815502300000	      0.00000000000006763192	     -0.00000000000000808709
      0.84399999999999997000	     -4.72855919470790110000	     -1.37988496585896910000	      3.75538227564004280000	      0.73559649644700231000	      0.94492671387833094000	     -0.31889675634801301000	     45.35493408013127200000	     -0.85761326938924565000	    -12.39320464578928200000	   -122.46234257861546000000	     -5.55018638077291990000	      0.00000000000030253812	      0.00000000000011582775	      4.30027104976495080000	     -0.87345742341360899000	     -4.53651986410516890000	    -35.30049246019091700000	     15.52007623083093100000	      0.00000000000001744614	     -0.00000000000007533656	     -6.05102685958792200000	     -0.17198742821714141000	    -15.49533415435484900000	    -18.25743418294664600000	    -20.08652453432124900000	     14.94518621095606800000	     48.56697588745827700000	     70.88549814166518100000	      0.00000000000002903662	      0.00000000000007149513	     -3.10137021276492360000	    -40.47278246597444000000	     15.31911371952066500000	    106.77598441185951000000	     82.68432895716745200000	      0.00000000000006784478	     -0.00000000000000809939
